<?xml version="1.0" standalone="no"?>
<!DOCTYPE svg PUBLIC "-//W3C//DTD SVG 20010904//EN"
 "http://www.w3.org/TR/2001/REC-SVG-20010904/DTD/svg10.dtd">
<svg version="1.0" xmlns="http://www.w3.org/2000/svg"
 width="32.000000pt" height="32.000000pt" viewBox="0 0 32.000000 32.000000"
 preserveAspectRatio="xMidYMid meet">

<g transform="translate(0.000000,32.000000) scale(0.100000,-0.100000)"
fill="#000000" stroke="none">
<path d="M95 262 c-41 -22 -51 -33 -58 -65 -16 -66 -2 -104 51 -138 59 -37 88
-37 148 3 47 32 49 35 52 85 4 66 -6 85 -64 117 -58 32 -67 32 -129 -2z m131
-18 l45 -26 -3 -62 -3 -61 -53 -28 -53 -29 -52 30 -52 29 -3 61 c-3 53 0 62
18 72 19 10 20 8 20 -38 0 -62 28 -102 71 -102 60 0 90 69 48 111 -17 17 -29
20 -60 16 -32 -4 -39 -2 -39 12 0 47 51 53 116 15z"/>
</g>
</svg>
